<?xml version="1.0" standalone="no"?>
<!DOCTYPE svg PUBLIC "-//W3C//DTD SVG 20010904//EN"
 "http://www.w3.org/TR/2001/REC-SVG-20010904/DTD/svg10.dtd">
<svg version="1.0" xmlns="http://www.w3.org/2000/svg"
 width="1024.000000pt" height="1024.000000pt" viewBox="0 0 1024.000000 1024.000000"
 preserveAspectRatio="xMidYMid meet">
<metadata>
Created by potrace 1.11, written by Peter Selinger 2001-2013
</metadata>
<g transform="translate(0.000000,1024.000000) scale(0.100000,-0.100000)"
fill="#000000" stroke="none">
<path d="M4072 9798 c0 -227 -1 -423 -1 -434 l-1 -21 -1534 0 c-843 0 -1538
-3 -1544 -7 -6 -3 -9 -36 -8 -79 l2 -72 4132 -1 c2273 -1 4133 1 4133 5 1 3 2
39 4 79 1 60 -1 72 -14 73 -9 0 -691 1 -1516 2 l-1500 2 0 433 0 432 -1076 0
-1076 0 -1 -412z"/>
<path d="M905 5208 l0 -3263 1643 -1 c903 -1 1645 -3 1647 -6 4 -3 -428 -431
-700 -693 -40 -38 -238 -232 -440 -430 -202 -198 -433 -424 -513 -502 l-146
-142 19 -23 c11 -13 36 -39 55 -59 l36 -36 216 211 c118 116 365 357 548 536
182 179 382 374 443 434 96 93 378 369 649 634 l76 75 284 -1 c155 0 291 -1
301 -1 16 -1 17 -52 17 -916 l0 -915 80 0 80 0 0 915 c0 864 1 915 18 916 9 0
210 1 445 1 354 1 431 -2 441 -13 7 -8 158 -196 336 -419 178 -223 344 -430
369 -461 94 -115 277 -344 311 -389 14 -18 33 -42 43 -54 11 -11 112 -137 225
-279 113 -141 211 -257 216 -257 6 0 35 22 65 48 l55 48 -50 60 c-27 33 -63
78 -81 100 -17 21 -315 393 -662 826 -574 717 -628 788 -603 789 15 0 698 1
1517 1 l1491 0 0 3264 0 3264 -4216 0 -4216 0 1 -3262z m8270 0 l0 -3103
-4055 0 -4055 0 0 3103 0 3102 4055 0 4055 0 0 -3102z"/>
<path d="M6981 7530 c-11 -8 -8 -4650 4 -4651 13 -1 1116 -1 1133 0 9 1 12
474 12 2329 l0 2327 -571 0 c-314 0 -574 -2 -578 -5z"/>
<path d="M4600 6582 c-7 -3 -10 -612 -10 -1853 l0 -1849 579 0 579 0 0 1850
c0 1018 -3 1851 -6 1851 -16 3 -1133 4 -1142 1z"/>
<path d="M2210 4375 l0 -1495 578 0 577 0 0 1495 0 1495 -577 0 -578 0 0
-1495z"/>
</g>
</svg>
